<svg t="1704013710763" class="icon" viewBox="0 0 1024 1024" version="1.1" xmlns="http://www.w3.org/2000/svg" p-id="4807" width="200" height="200"><path d="M383.078 570.982c-4.403 25.063-4.403 88.32 0 110.234 8.55 43.136 34.714 84.608 67.303 109.875l15.36-122.189h62.72l13.517 122.19c28.57-18.433 50.534-40.04 68.89-109.876 12.364-47.206 9.574-79.232 5.452-109.9l29.44 1.382c70.502 3.993 150.554 13.388 184.064 30.438 36.557 18.611 45.286 125.491 78.362 297.805l-805.786-0.768 4.275-58.035c6.989-86.093 21.274-209.434 60.007-249.114 8.422-8.576 80.563-15.949 216.396-21.99v-0.052z m113.997 0l47.155 48.896-18.15 32.64h-58.112l-17.587-32.563 46.694-48.896v-0.077zM481.92 76.954c119.22 3.584 228.582 56.064 247.424 90.956 18.944 34.944-40.678 73.626-67.584 83.61l3.61 4.096c1.715 5.76 6.067 17.408 4.582 27.52 1.1 4.66-0.717 7.245 0 13.005l-8.14 18.176c3.583 195.072-138.574 223.053-168.96 223.053-30.337 0-194.612-28.032-185.166-229.53-5.504-6.81-8.37-11.7-8.37-11.7l-0.385-13.004c-0.153-11.008 0-25.958 1.997-31.437l-2.688-0.947c-11.98-4.506-60.058-25.165-60.902-66.202-0.973-45.44 117.043-107.033 232.601-107.75l11.981 0.154z m154.06 139.008H326.35v33.536H635.98v-33.536z m-143.743-104.55c-22.298 0-40.32 15.436-40.32 34.508l0.512 4.506c-19.917-1.588-36.506 0.332-36.557 0.332 31.104 12.084 44.826 20.813 44.826 20.813 7.321 5.683 16 7.86 23.756 8.474l5.581 0.256 2.1 0.179 5.375-0.384 8.09-1.536 0.768-0.384c3.277-1.024 6.4-2.458 9.344-4.224l52.736-23.091c-11.802 0.179-24.832 1.1-36.813 2.099 0.589-2.304 0.896-4.66 0.896-7.04 0-19.072-18.022-34.509-40.294-34.509z" p-id="4808"></path></svg>