<svg t="1704541624225" class="icon" viewBox="0 0 1024 1024" version="1.1" xmlns="http://www.w3.org/2000/svg" p-id="23372" width="200" height="200"><path d="M463.872 566.272L24.576 342.016c-25.6-12.8-25.6-49.664 0-62.464l439.296-223.744c30.208-15.36 66.048-15.36 95.744 0l439.296 223.744c25.6 12.8 25.6 49.664 0 62.464l-439.296 223.744c-30.72 15.36-66.048 15.36-95.744 0.512z m491.008 106.496l-413.184 210.432c-19.456 10.24-42.496 10.24-60.928 0l-413.184-209.408c-25.6-12.8-54.272-1.536-60.928 25.6-5.12 20.48 4.096 40.448 22.016 49.152l437.76 221.184c28.672 14.336 62.464 14.336 91.136 0l437.76-222.208c17.92-9.216 27.136-28.672 22.016-49.152-8.192-26.624-36.864-38.4-62.464-25.6z" fill="#12B7F5" p-id="23373"></path><path d="M954.88 467.968l-413.184 209.408c-19.456 10.24-42.496 10.24-60.928 0L56.832 462.848C32.768 451.072 5.12 467.968 5.12 495.104v14.336c0 13.312 7.68 26.112 19.456 32.256L465.92 764.928c28.672 14.336 62.464 14.336 91.136 0l437.76-222.208c17.92-9.216 27.136-28.672 22.016-49.152-7.68-27.136-36.352-37.888-61.952-25.6z" fill="#12B7F5" p-id="23374"></path></svg>