<svg t="1704011169699" class="icon" viewBox="0 0 1024 1024" version="1.1" xmlns="http://www.w3.org/2000/svg" p-id="1083" width="200" height="200"><path d="M482.986667 818.090667H205.568A162.730667 162.730667 0 0 1 42.666667 655.957333v-407.893333a162.730667 162.730667 0 0 1 162.901333-162.133333h515.242667a162.645333 162.645333 0 0 1 162.901333 162.133333v165.546667a34.133333 34.133333 0 0 1-68.266667 0v-165.546667a94.293333 94.293333 0 0 0-94.634666-93.866667H205.568a95.488 95.488 0 0 0-94.634667 93.866667v407.893333a95.488 95.488 0 0 0 94.634667 93.866667H482.986667a34.133333 34.133333 0 0 1 0 68.266667zM591.957333 926.122667H104.96a34.133333 34.133333 0 1 1 0-68.266667h486.997333a34.133333 34.133333 0 0 1 0 68.266667z" p-id="1084"></path><path d="M666.453333 294.058667l-170.666666 131.925333-50.261334-64a30.976 30.976 0 0 0-40.277333-5.973333L225.706667 486.4a28.928 28.928 0 0 0 18.090666 52.053333 22.954667 22.954667 0 0 0 16.128-6.058666L416.938667 418.133333l50.261333 63.914667a28.757333 28.757333 0 0 0 40.277333 4.010667l193.194667-145.92a30.890667 30.890667 0 0 0 6.058667-40.021334 31.232 31.232 0 0 0-40.277334-6.058666zM721.493333 867.584c-123.221333 0-223.488-96.768-223.488-215.722667s100.266667-215.722667 223.488-215.722666 223.573333 96.768 223.573334 215.722666-100.266667 215.722667-223.573334 215.722667z m0-378.282667c-93.866667 0-170.666667 72.874667-170.666666 162.133334s76.8 162.133333 170.666666 162.133333 170.666667-72.96 170.666667-162.133333-76.714667-162.133333-170.666667-162.133334z" p-id="1085"></path><path d="M913.578667 913.066667a26.368 26.368 0 0 1-19.882667-8.533334l-69.461333-78.506666a26.624 26.624 0 0 1 39.765333-35.328l69.461333 78.165333a26.624 26.624 0 0 1-19.882666 44.202667z" p-id="1086"></path></svg>